<svg xmlns="http://www.w3.org/2000/svg" xmlns:xlink="http://www.w3.org/1999/xlink" width="126" zoomAndPan="magnify" viewBox="0 0 94.5 30.000001" height="40" preserveAspectRatio="xMidYMid meet" version="1.0"><defs><g/><clipPath id="9a5b04d888"><path d="M 1.28125 10 L 16 10 L 16 20 L 1.28125 20 Z M 1.28125 10 " clip-rule="nonzero"/></clipPath><clipPath id="8a62076598"><path d="M 83 11 L 92.734375 11 L 92.734375 25 L 83 25 Z M 83 11 " clip-rule="nonzero"/></clipPath></defs><path fill="#0ea5ea" d="M 23.980469 3.160156 L 23.980469 9.289062 L 16.375 13.539062 L 16.375 5.023438 L 21.84375 2.019531 C 22.054688 1.902344 22.296875 1.835938 22.542969 1.835938 C 22.789062 1.832031 23.03125 1.890625 23.246094 2.007812 C 23.460938 2.121094 23.640625 2.289062 23.769531 2.488281 C 23.898438 2.691406 23.972656 2.921875 23.980469 3.160156 Z M 23.980469 3.160156 " fill-opacity="1" fill-rule="nonzero"/><path fill="#0ea5ea" d="M 8.769531 3.160156 L 8.769531 9.289062 L 16.375 13.539062 L 16.375 5.023438 L 10.90625 2.019531 C 10.695312 1.902344 10.453125 1.835938 10.207031 1.835938 C 9.960938 1.832031 9.71875 1.890625 9.503906 2.007812 C 9.289062 2.121094 9.109375 2.289062 8.980469 2.488281 C 8.851562 2.691406 8.777344 2.921875 8.769531 3.160156 Z M 8.769531 3.160156 " fill-opacity="0.3" fill-rule="nonzero"/><path fill="#0ea5ea" d="M 22.457031 27.214844 L 17.136719 24.175781 L 17.222656 15.460938 L 24.617188 19.6875 L 24.507812 25.925781 C 24.507812 26.167969 24.441406 26.410156 24.324219 26.625 C 24.203125 26.839844 24.03125 27.019531 23.824219 27.148438 C 23.621094 27.277344 23.386719 27.351562 23.144531 27.363281 C 22.90625 27.375 22.667969 27.324219 22.457031 27.214844 Z M 22.457031 27.214844 " fill-opacity="1" fill-rule="nonzero"/><path fill="#0ea5ea" d="M 30.007812 14.007812 L 24.6875 10.964844 L 17.222656 15.460938 L 24.617188 19.6875 L 29.9375 16.429688 C 30.144531 16.304688 30.320312 16.125 30.445312 15.914062 C 30.566406 15.703125 30.636719 15.460938 30.644531 15.21875 C 30.652344 14.976562 30.597656 14.734375 30.484375 14.523438 C 30.371094 14.3125 30.207031 14.132812 30.007812 14.007812 Z M 30.007812 14.007812 " fill-opacity="0.3" fill-rule="nonzero"/><path fill="#0ea5ea" d="M 9.863281 27.214844 L 15.183594 24.175781 L 15.097656 15.460938 L 7.707031 19.6875 L 7.8125 25.925781 C 7.8125 26.167969 7.878906 26.410156 7.996094 26.625 C 8.117188 26.839844 8.289062 27.019531 8.496094 27.148438 C 8.703125 27.277344 8.9375 27.351562 9.175781 27.363281 C 9.414062 27.375 9.652344 27.324219 9.863281 27.214844 Z M 9.863281 27.214844 " fill-opacity="0.3" fill-rule="nonzero"/><g clip-path="url(#9a5b04d888)"><path fill="#0ea5ea" d="M 2.3125 14.007812 L 7.632812 10.964844 L 15.097656 15.460938 L 7.707031 19.6875 L 2.382812 16.429688 C 2.175781 16.304688 2 16.125 1.875 15.914062 C 1.753906 15.703125 1.683594 15.460938 1.675781 15.21875 C 1.667969 14.976562 1.722656 14.734375 1.835938 14.523438 C 1.949219 14.3125 2.113281 14.132812 2.3125 14.007812 Z M 2.3125 14.007812 " fill-opacity="1" fill-rule="nonzero"/></g><g fill="#0ea5ea" fill-opacity="1"><g transform="translate(30.324884, 24.647448)"><g><path d="M 21.5625 -16.25 C 21.5625 -16.800781 21.304688 -17.328125 20.796875 -17.828125 C 20.054688 -18.523438 19.039062 -18.875 17.75 -18.875 C 16.625 -18.875 15.375 -18.628906 14 -18.140625 C 13.28125 -17.878906 12.660156 -17.523438 12.140625 -17.078125 C 11.328125 -16.378906 10.921875 -15.675781 10.921875 -14.96875 C 10.921875 -14.03125 11.515625 -13.1875 12.703125 -12.4375 C 13.148438 -12.164062 14.046875 -11.722656 15.390625 -11.109375 C 16.742188 -10.492188 17.734375 -9.992188 18.359375 -9.609375 C 19.296875 -9.035156 19.941406 -8.421875 20.296875 -7.765625 C 20.660156 -7.117188 20.84375 -6.515625 20.84375 -5.953125 C 20.84375 -5.160156 20.578125 -4.347656 20.046875 -3.515625 C 19.128906 -2.035156 17.773438 -0.757812 15.984375 0.3125 C 13.929688 1.550781 11.453125 2.171875 8.546875 2.171875 C 5.753906 2.171875 3.535156 1.460938 1.890625 0.046875 C 0.617188 -1.035156 -0.015625 -2.429688 -0.015625 -4.140625 C -0.015625 -5.222656 0.378906 -6.414062 1.171875 -7.71875 C 1.960938 -9.03125 2.929688 -9.957031 4.078125 -10.5 C 4.316406 -10.59375 4.492188 -10.625 4.609375 -10.59375 C 4.734375 -10.5625 4.632812 -10.410156 4.3125 -10.140625 C 3.625 -9.597656 3.070312 -9 2.65625 -8.34375 C 1.769531 -6.945312 1.328125 -5.425781 1.328125 -3.78125 C 1.328125 -2.695312 1.628906 -1.75 2.234375 -0.9375 C 3.316406 0.519531 5.195312 1.34375 7.875 1.53125 C 8.175781 1.5625 8.625 1.578125 9.21875 1.578125 C 9.820312 1.578125 10.640625 1.46875 11.671875 1.25 C 12.703125 1.039062 13.691406 0.6875 14.640625 0.1875 C 16.703125 -0.894531 18.035156 -2.296875 18.640625 -4.015625 C 18.828125 -4.523438 18.921875 -5.019531 18.921875 -5.5 C 18.921875 -6.582031 18.4375 -7.539062 17.46875 -8.375 C 16.945312 -8.789062 15.875 -9.34375 14.25 -10.03125 C 12.632812 -10.726562 11.546875 -11.257812 10.984375 -11.625 C 9.753906 -12.457031 9.140625 -13.4375 9.140625 -14.5625 C 9.140625 -15.550781 9.691406 -16.519531 10.796875 -17.46875 C 12.378906 -18.800781 14.613281 -19.46875 17.5 -19.46875 C 18.851562 -19.46875 19.957031 -19.265625 20.8125 -18.859375 C 21.664062 -18.453125 22.1875 -17.84375 22.375 -17.03125 C 22.40625 -16.875 22.421875 -16.710938 22.421875 -16.546875 C 22.421875 -15.929688 22.132812 -15.375 21.5625 -14.875 C 21.164062 -14.5625 20.628906 -14.304688 19.953125 -14.109375 C 19.671875 -14.035156 19.515625 -14.066406 19.484375 -14.203125 C 19.453125 -14.410156 19.648438 -14.539062 20.078125 -14.59375 C 20.835938 -14.6875 21.304688 -15.066406 21.484375 -15.734375 C 21.535156 -15.910156 21.5625 -16.082031 21.5625 -16.25 Z M 21.5625 -16.25 "/></g></g></g><g fill="#d8e6fb" fill-opacity="1"><g transform="translate(50.696362, 23.865206)"><g><path d="M 7.296875 -5.46875 C 7.046875 -5.226562 6.695312 -4.679688 6.25 -3.828125 C 5.8125 -2.972656 5.546875 -2.332031 5.453125 -1.90625 C 5.367188 -1.476562 5.328125 -1.132812 5.328125 -0.875 C 5.328125 -0.613281 5.429688 -0.484375 5.640625 -0.484375 C 5.890625 -0.484375 6.207031 -0.71875 6.59375 -1.1875 C 7.144531 -1.875 7.6875 -2.769531 8.21875 -3.875 C 8.269531 -4 8.332031 -4.066406 8.40625 -4.078125 C 8.507812 -4.117188 8.5625 -4.078125 8.5625 -3.953125 C 8.5625 -3.890625 8.539062 -3.8125 8.5 -3.71875 C 7.257812 -1.207031 6.21875 0.046875 5.375 0.046875 C 4.976562 0.046875 4.660156 -0.144531 4.421875 -0.53125 C 4.304688 -0.726562 4.25 -0.992188 4.25 -1.328125 C 4.25 -1.671875 4.3125 -2.082031 4.4375 -2.5625 C 3.363281 -0.820312 2.4375 0.046875 1.65625 0.046875 C 1.4375 0.046875 1.242188 -0.0195312 1.078125 -0.15625 C 0.671875 -0.4375 0.46875 -0.921875 0.46875 -1.609375 C 0.46875 -2.929688 1.039062 -4.273438 2.1875 -5.640625 C 2.832031 -6.390625 3.625 -6.878906 4.5625 -7.109375 C 4.820312 -7.179688 5.066406 -7.21875 5.296875 -7.21875 C 5.910156 -7.21875 6.4375 -7 6.875 -6.5625 C 7.007812 -6.414062 7.046875 -6.273438 6.984375 -6.140625 C 6.929688 -6.003906 6.816406 -5.953125 6.640625 -5.984375 C 6.492188 -6.460938 6.171875 -6.703125 5.671875 -6.703125 C 5.097656 -6.703125 4.382812 -6.242188 3.53125 -5.328125 C 3.050781 -4.796875 2.601562 -4.164062 2.1875 -3.4375 C 1.65625 -2.5625 1.390625 -1.859375 1.390625 -1.328125 C 1.390625 -0.804688 1.5625 -0.546875 1.90625 -0.546875 C 2.707031 -0.546875 3.765625 -1.785156 5.078125 -4.265625 C 5.328125 -4.765625 5.539062 -5.101562 5.71875 -5.28125 C 5.894531 -5.46875 6.117188 -5.5625 6.390625 -5.5625 C 6.441406 -5.5625 6.578125 -5.539062 6.796875 -5.5 C 7.015625 -5.457031 7.179688 -5.445312 7.296875 -5.46875 Z M 7.296875 -5.46875 "/></g></g></g><g fill="#d8e6fb" fill-opacity="1"><g transform="translate(57.765392, 23.865206)"><g><path d="M 0.4375 -1.171875 C 0.4375 -1.753906 0.6875 -2.453125 1.1875 -3.265625 C 0.976562 -3.265625 0.921875 -3.375 1.015625 -3.59375 L 1.375 -4.296875 C 1.832031 -5.171875 2.207031 -5.914062 2.5 -6.53125 C 2.632812 -6.8125 2.898438 -6.953125 3.296875 -6.953125 L 4.53125 -6.953125 C 4.039062 -6.597656 3.550781 -5.921875 3.0625 -4.921875 C 2.570312 -3.921875 2.191406 -3.132812 1.921875 -2.5625 C 1.648438 -1.988281 1.515625 -1.550781 1.515625 -1.25 C 1.515625 -0.957031 1.5625 -0.75 1.65625 -0.625 C 1.757812 -0.5 1.898438 -0.4375 2.078125 -0.4375 C 2.335938 -0.4375 2.695312 -0.707031 3.15625 -1.25 C 3.863281 -2.082031 4.863281 -3.84375 6.15625 -6.53125 C 6.3125 -6.8125 6.578125 -6.953125 6.953125 -6.953125 L 8.046875 -6.953125 C 7.742188 -6.722656 7.507812 -6.484375 7.34375 -6.234375 C 7.175781 -5.992188 6.941406 -5.566406 6.640625 -4.953125 C 5.835938 -3.335938 5.390625 -2.265625 5.296875 -1.734375 C 5.253906 -1.546875 5.234375 -1.375 5.234375 -1.21875 C 5.234375 -0.78125 5.378906 -0.550781 5.671875 -0.53125 C 6.398438 -0.53125 7.296875 -1.65625 8.359375 -3.90625 C 8.441406 -4.09375 8.523438 -4.164062 8.609375 -4.125 C 8.691406 -4.082031 8.734375 -4.023438 8.734375 -3.953125 C 8.734375 -3.890625 8.671875 -3.734375 8.546875 -3.484375 C 8.421875 -3.242188 8.300781 -3.007812 8.1875 -2.78125 C 8.070312 -2.550781 7.894531 -2.238281 7.65625 -1.84375 C 7.425781 -1.445312 7.210938 -1.132812 7.015625 -0.90625 C 6.484375 -0.3125 5.960938 -0.015625 5.453125 -0.015625 C 4.953125 -0.015625 4.609375 -0.238281 4.421875 -0.6875 C 4.335938 -0.882812 4.296875 -1.140625 4.296875 -1.453125 C 4.296875 -1.765625 4.363281 -2.148438 4.5 -2.609375 C 3.519531 -0.878906 2.613281 -0.015625 1.78125 -0.015625 C 1.050781 -0.015625 0.625 -0.316406 0.5 -0.921875 C 0.457031 -0.992188 0.4375 -1.078125 0.4375 -1.171875 Z M 0.4375 -1.171875 "/></g></g></g><g fill="#d8e6fb" fill-opacity="1"><g transform="translate(64.975801, 23.865206)"><g><path d="M 3.875 -8.09375 C 3.875 -7.488281 3.488281 -6.921875 2.71875 -6.390625 C 2.988281 -6.367188 3.347656 -6.359375 3.796875 -6.359375 C 4.253906 -6.359375 4.828125 -6.394531 5.515625 -6.46875 C 5.535156 -6.425781 5.546875 -6.316406 5.546875 -6.140625 C 5.546875 -5.960938 5.460938 -5.703125 5.296875 -5.359375 C 5.140625 -5.015625 5 -4.71875 4.875 -4.46875 C 4.75 -4.21875 4.628906 -3.984375 4.515625 -3.765625 C 4.398438 -3.546875 4.269531 -3.273438 4.125 -2.953125 C 3.988281 -2.628906 3.867188 -2.332031 3.765625 -2.0625 C 3.429688 -1.039062 3.488281 -0.53125 3.9375 -0.53125 C 4.5 -0.53125 5.332031 -1.65625 6.4375 -3.90625 C 6.53125 -4.070312 6.609375 -4.132812 6.671875 -4.09375 C 6.734375 -4.0625 6.765625 -4.015625 6.765625 -3.953125 C 6.765625 -3.890625 6.675781 -3.675781 6.5 -3.3125 C 6.320312 -2.957031 6.128906 -2.59375 5.921875 -2.21875 C 5.722656 -1.84375 5.410156 -1.40625 4.984375 -0.90625 C 4.472656 -0.289062 3.984375 0.015625 3.515625 0.015625 C 2.984375 0.015625 2.617188 -0.296875 2.421875 -0.921875 C 2.378906 -1.046875 2.359375 -1.226562 2.359375 -1.46875 C 2.359375 -1.71875 2.4375 -2.039062 2.59375 -2.4375 C 2.75 -2.84375 2.992188 -3.332031 3.328125 -3.90625 C 3.660156 -4.488281 3.847656 -4.832031 3.890625 -4.9375 C 3.929688 -5.039062 3.953125 -5.140625 3.953125 -5.234375 C 3.953125 -5.648438 3.414062 -5.875 2.34375 -5.90625 L 2.09375 -5.25 C 1.25 -3.03125 0.4375 -1.539062 -0.34375 -0.78125 C -0.476562 -0.664062 -0.546875 -0.707031 -0.546875 -0.90625 C -0.546875 -0.945312 -0.535156 -0.992188 -0.515625 -1.046875 C 0.242188 -2.046875 0.898438 -3.222656 1.453125 -4.578125 C 2.003906 -5.941406 2.390625 -7.238281 2.609375 -8.46875 C 2.679688 -8.882812 2.863281 -9.09375 3.15625 -9.09375 C 3.457031 -9.09375 3.675781 -8.90625 3.8125 -8.53125 C 3.851562 -8.40625 3.875 -8.257812 3.875 -8.09375 Z M 3.875 -8.09375 "/></g></g></g><g fill="#d8e6fb" fill-opacity="1"><g transform="translate(70.227077, 23.865206)"><g><path d="M 7.296875 -5.46875 C 7.046875 -5.226562 6.695312 -4.679688 6.25 -3.828125 C 5.8125 -2.972656 5.546875 -2.332031 5.453125 -1.90625 C 5.367188 -1.476562 5.328125 -1.132812 5.328125 -0.875 C 5.328125 -0.613281 5.429688 -0.484375 5.640625 -0.484375 C 5.890625 -0.484375 6.207031 -0.71875 6.59375 -1.1875 C 7.144531 -1.875 7.6875 -2.769531 8.21875 -3.875 C 8.269531 -4 8.332031 -4.066406 8.40625 -4.078125 C 8.507812 -4.117188 8.5625 -4.078125 8.5625 -3.953125 C 8.5625 -3.890625 8.539062 -3.8125 8.5 -3.71875 C 7.257812 -1.207031 6.21875 0.046875 5.375 0.046875 C 4.976562 0.046875 4.660156 -0.144531 4.421875 -0.53125 C 4.304688 -0.726562 4.25 -0.992188 4.25 -1.328125 C 4.25 -1.671875 4.3125 -2.082031 4.4375 -2.5625 C 3.363281 -0.820312 2.4375 0.046875 1.65625 0.046875 C 1.4375 0.046875 1.242188 -0.0195312 1.078125 -0.15625 C 0.671875 -0.4375 0.46875 -0.921875 0.46875 -1.609375 C 0.46875 -2.929688 1.039062 -4.273438 2.1875 -5.640625 C 2.832031 -6.390625 3.625 -6.878906 4.5625 -7.109375 C 4.820312 -7.179688 5.066406 -7.21875 5.296875 -7.21875 C 5.910156 -7.21875 6.4375 -7 6.875 -6.5625 C 7.007812 -6.414062 7.046875 -6.273438 6.984375 -6.140625 C 6.929688 -6.003906 6.816406 -5.953125 6.640625 -5.984375 C 6.492188 -6.460938 6.171875 -6.703125 5.671875 -6.703125 C 5.097656 -6.703125 4.382812 -6.242188 3.53125 -5.328125 C 3.050781 -4.796875 2.601562 -4.164062 2.1875 -3.4375 C 1.65625 -2.5625 1.390625 -1.859375 1.390625 -1.328125 C 1.390625 -0.804688 1.5625 -0.546875 1.90625 -0.546875 C 2.707031 -0.546875 3.765625 -1.785156 5.078125 -4.265625 C 5.328125 -4.765625 5.539062 -5.101562 5.71875 -5.28125 C 5.894531 -5.46875 6.117188 -5.5625 6.390625 -5.5625 C 6.441406 -5.5625 6.578125 -5.539062 6.796875 -5.5 C 7.015625 -5.457031 7.179688 -5.445312 7.296875 -5.46875 Z M 7.296875 -5.46875 "/></g></g></g><g fill="#d8e6fb" fill-opacity="1"><g transform="translate(77.296107, 23.865206)"><g><path d="M 6.234375 -5.5 C 6.234375 -6.257812 5.914062 -6.640625 5.28125 -6.640625 C 5.226562 -6.640625 5.175781 -6.640625 5.125 -6.640625 C 4.882812 -6.617188 4.742188 -6.664062 4.703125 -6.78125 C 4.660156 -6.90625 4.71875 -6.988281 4.875 -7.03125 C 5.039062 -7.070312 5.21875 -7.078125 5.40625 -7.046875 C 6.101562 -6.941406 6.582031 -6.613281 6.84375 -6.0625 C 7.019531 -5.726562 7.109375 -5.398438 7.109375 -5.078125 C 7.109375 -3.910156 6.679688 -2.769531 5.828125 -1.65625 C 4.984375 -0.519531 3.890625 0.046875 2.546875 0.046875 C 2.046875 0.046875 1.640625 -0.09375 1.328125 -0.375 C 1.015625 -0.664062 0.859375 -1.046875 0.859375 -1.515625 C 0.859375 -2.078125 1.179688 -3.035156 1.828125 -4.390625 C 0.722656 -2.296875 0.0078125 -1.09375 -0.3125 -0.78125 C -0.445312 -0.664062 -0.515625 -0.707031 -0.515625 -0.90625 C -0.515625 -0.945312 -0.5 -0.992188 -0.46875 -1.046875 C 0 -1.671875 0.9375 -3.351562 2.34375 -6.09375 C 3.75 -8.84375 4.738281 -10.644531 5.3125 -11.5 C 5.769531 -12.15625 6.210938 -12.484375 6.640625 -12.484375 C 6.640625 -12.484375 6.644531 -12.484375 6.65625 -12.484375 L 6.765625 -12.484375 C 6.773438 -12.484375 6.890625 -12.460938 7.109375 -12.421875 C 7.335938 -12.378906 7.503906 -12.375 7.609375 -12.40625 C 7.160156 -11.9375 6.460938 -10.992188 5.515625 -9.578125 C 3.140625 -6.054688 1.953125 -3.429688 1.953125 -1.703125 C 1.953125 -0.984375 2.179688 -0.578125 2.640625 -0.484375 C 2.679688 -0.472656 2.726562 -0.46875 2.78125 -0.46875 C 3.195312 -0.46875 3.71875 -0.835938 4.34375 -1.578125 C 4.96875 -2.328125 5.484375 -3.179688 5.890625 -4.140625 C 6.117188 -4.640625 6.234375 -5.09375 6.234375 -5.5 Z M 6.234375 -5.5 "/></g></g></g><g clip-path="url(#8a62076598)"><g fill="#d8e6fb" fill-opacity="1"><g transform="translate(84.264149, 23.865206)"><g><path d="M 4.75 -0.90625 C 4.75 -0.53125 4.882812 -0.34375 5.15625 -0.34375 C 5.78125 -0.34375 6.675781 -1.53125 7.84375 -3.90625 C 7.9375 -4.09375 8.019531 -4.164062 8.09375 -4.125 C 8.164062 -4.082031 8.203125 -4.023438 8.203125 -3.953125 C 8.203125 -3.890625 8.125 -3.695312 7.96875 -3.375 C 7.8125 -3.0625 7.65625 -2.757812 7.5 -2.46875 C 7.34375 -2.1875 7.117188 -1.804688 6.828125 -1.328125 C 6.210938 -0.390625 5.550781 0.078125 4.84375 0.078125 C 4.382812 0.078125 4.019531 -0.109375 3.75 -0.484375 C 3.632812 -0.660156 3.578125 -0.898438 3.578125 -1.203125 C 3.578125 -1.503906 3.644531 -1.867188 3.78125 -2.296875 C 3.914062 -2.734375 4.285156 -3.4375 4.890625 -4.40625 C 5.035156 -4.644531 5.109375 -4.832031 5.109375 -4.96875 C 5.109375 -5.113281 4.992188 -5.1875 4.765625 -5.1875 C 4.535156 -5.1875 4.097656 -4.882812 3.453125 -4.28125 C 2.484375 -3.394531 1.539062 -2.0625 0.625 -0.28125 C 0.53125 -0.0820312 0.28125 0.015625 -0.125 0.015625 C -0.488281 0.046875 -0.71875 0.0859375 -0.8125 0.140625 C 1.75 -5.179688 3.601562 -8.890625 4.75 -10.984375 C 5 -11.460938 5.222656 -11.796875 5.421875 -11.984375 C 5.617188 -12.171875 5.851562 -12.265625 6.125 -12.265625 C 6.1875 -12.265625 6.328125 -12.242188 6.546875 -12.203125 C 6.765625 -12.171875 6.925781 -12.164062 7.03125 -12.1875 C 6.625 -11.769531 5.898438 -10.613281 4.859375 -8.71875 C 3.816406 -6.820312 2.816406 -4.898438 1.859375 -2.953125 C 2.492188 -3.742188 3.0625 -4.359375 3.5625 -4.796875 C 4.070312 -5.242188 4.6875 -5.664062 5.40625 -6.0625 C 6.132812 -6.46875 6.671875 -6.671875 7.015625 -6.671875 C 7.085938 -6.671875 7.160156 -6.65625 7.234375 -6.625 C 5.578125 -3.71875 4.75 -1.8125 4.75 -0.90625 Z M 4.75 -0.90625 "/></g></g></g></g></svg>